<?xml version="1.0" standalone="no"?>
<!DOCTYPE svg PUBLIC "-//W3C//DTD SVG 20010904//EN"
 "http://www.w3.org/TR/2001/REC-SVG-20010904/DTD/svg10.dtd">
<svg version="1.0" xmlns="http://www.w3.org/2000/svg"
 width="282.000000pt" height="70.000000pt" viewBox="0 0 282.000000 70.000000"
 preserveAspectRatio="xMidYMid meet">

<g transform="translate(0.000000,70.000000) scale(0.100000,-0.100000)"
fill="#000000" stroke="none">
<path d="M685 635 c-22 -26 -48 -57 -57 -69 l-17 -21 -25 24 c-30 28 -35 17
-7 -13 20 -21 20 -21 -60 -116 -128 -152 -119 -148 -119 -58 0 67 3 80 25 106
21 25 25 40 25 93 0 35 -4 70 -9 77 -6 9 -66 -55 -207 -219 -109 -128 -205
-241 -212 -251 -12 -17 -9 -18 61 -18 l74 0 59 70 c32 39 62 70 66 70 4 0 8
-31 8 -70 l0 -70 74 0 75 0 107 125 c59 69 108 124 110 123 1 -2 -3 -25 -9
-51 -8 -35 -14 -46 -25 -42 -12 4 -13 3 -2 -10 10 -12 10 -25 1 -59 -19 -78
-16 -86 29 -86 34 0 40 3 46 26 l7 25 26 -25 c22 -21 37 -26 79 -26 l52 0 0
150 0 150 63 0 c61 0 67 2 137 53 l72 52 -200 3 -201 2 -3 52 -3 51 -40 -48z
m125 -172 c-1 -5 -14 -24 -30 -43 -28 -32 -30 -39 -30 -123 l0 -88 -25 18
c-25 18 -25 19 -19 123 4 58 9 108 11 113 2 4 24 7 49 7 24 0 44 -3 44 -7z"/>
<path d="M1059 451 c-51 -52 -32 -105 56 -157 12 -6 16 -16 12 -27 -8 -21 -60
-23 -77 -2 -10 12 -16 11 -42 -8 l-29 -22 32 -29 c29 -26 37 -28 92 -24 50 4
64 9 84 32 39 45 29 92 -27 134 -25 19 -46 40 -48 47 -4 19 25 26 54 13 21
-10 28 -8 47 11 l22 22 -24 20 c-16 13 -39 19 -73 19 -41 0 -54 -5 -79 -29z"/>
<path d="M1277 468 c-2 -7 -12 -57 -22 -111 -22 -117 -16 -144 38 -170 65 -32
147 -4 181 61 8 15 21 65 31 112 9 47 19 93 21 103 5 14 -1 17 -35 17 -45 0
-41 7 -67 -115 -22 -103 -28 -115 -64 -115 -41 0 -44 22 -20 131 11 51 20 94
20 96 0 10 -79 1 -83 -9z"/>
<path d="M1567 464 c-8 -27 -57 -263 -57 -274 0 -6 18 -10 39 -10 39 0 40 1
48 42 9 42 9 43 61 51 73 12 112 50 112 110 0 73 -22 91 -118 95 -71 4 -81 2
-85 -14z m117 -60 c22 -8 20 -41 -3 -54 -31 -16 -64 -13 -57 6 3 9 6 24 6 35
0 19 23 25 54 13z"/>
<path d="M1816 464 c-9 -29 -56 -258 -56 -271 0 -8 14 -13 39 -13 37 0 38 1
47 43 7 34 13 43 34 45 48 5 109 33 124 57 22 33 20 97 -3 126 -17 21 -30 24
-99 27 -71 4 -81 2 -86 -14z m122 -66 c7 -7 12 -15 12 -19 0 -17 -33 -39 -57
-39 -21 0 -24 3 -19 23 3 12 6 28 6 35 0 15 42 16 58 0z"/>
<path d="M2065 468 c-7 -25 -55 -260 -55 -274 0 -22 186 -20 194 2 17 43 8 54
-42 54 -27 0 -51 2 -54 5 -3 4 -1 25 4 48 5 23 15 72 23 110 l13 67 -39 0
c-23 0 -41 -5 -44 -12z"/>
<path d="M2256 343 c-16 -75 -30 -143 -33 -150 -4 -9 7 -13 39 -13 l44 0 27
138 c15 76 27 144 27 150 0 7 -15 12 -38 12 l-38 0 -28 -137z"/>
<path d="M2405 468 c-7 -25 -55 -260 -55 -274 0 -22 186 -20 194 2 17 45 9 54
-50 54 -47 0 -55 3 -50 16 3 9 6 20 6 24 0 5 21 10 48 12 43 3 47 5 50 31 3
26 1 27 -37 27 -37 0 -41 2 -41 25 0 24 3 25 60 25 41 0 60 4 60 13 0 6 3 22
6 35 6 22 5 22 -90 22 -69 0 -98 -4 -101 -12z"/>
<path d="M2659 465 c-57 -31 -58 -106 -2 -141 47 -30 62 -45 56 -60 -7 -19
-58 -18 -77 1 -13 14 -18 12 -43 -9 l-28 -25 22 -22 c29 -29 117 -38 160 -16
38 20 60 69 47 105 -8 24 -26 39 -90 79 -18 10 -18 12 -2 29 15 15 21 16 41 5
21 -11 29 -10 51 4 31 21 31 19 4 45 -26 24 -99 27 -139 5z"/>
<path d="M63 93 c-4 -9 -1 -19 5 -21 18 -6 14 -20 -5 -25 -16 -4 -16 -5 -1 -6
22 -1 33 18 19 32 -16 16 -13 30 5 23 8 -3 12 -2 9 4 -9 15 -25 12 -32 -7z"/>
<path d="M194 95 c-7 -18 -30 -20 -37 -2 -4 7 -6 6 -6 -5 -1 -9 -4 -25 -7 -35
-5 -17 -5 -17 6 0 6 9 18 17 27 17 10 0 13 -5 8 -17 -4 -12 -3 -14 3 -8 11 12
25 65 17 65 -3 0 -8 -7 -11 -15z"/>
<path d="M266 95 c-21 -21 -21 -44 0 -52 24 -9 49 10 49 38 0 29 -26 36 -49
14z m42 -18 c4 -21 -25 -34 -40 -19 -8 8 -8 16 2 27 16 19 34 15 38 -8z"/>
<path d="M376 88 c-10 -40 -8 -51 7 -36 8 7 12 20 9 30 -6 23 15 24 22 1 4
-14 4 -14 3 2 -3 29 -33 31 -41 3z"/>
<path d="M549 73 l4 -38 8 29 c5 16 14 33 21 37 9 6 5 9 -12 9 -24 0 -26 -3
-21 -37z"/>
<path d="M634 85 c-3 -13 -4 -30 -1 -37 4 -8 6 -7 6 5 1 9 8 17 16 17 8 0 15
-8 16 -17 0 -10 5 -3 10 16 6 18 8 36 5 39 -3 3 -6 -2 -6 -11 0 -10 -8 -17
-20 -17 -13 0 -18 5 -14 15 4 8 3 15 0 15 -3 0 -8 -11 -12 -25z"/>
<path d="M747 103 c-2 -5 -7 -20 -11 -35 -6 -24 -3 -28 16 -27 13 0 17 3 11 6
-19 7 -16 23 5 24 14 0 14 2 -3 9 -19 8 -19 8 5 18 24 10 24 11 3 11 -12 1
-24 -2 -26 -6z"/>
<path d="M906 98 c-14 -46 -14 -58 4 -58 26 0 39 21 29 48 -9 24 -27 29 -33
10z m24 -8 c0 -5 -5 -10 -11 -10 -5 0 -7 5 -4 10 3 6 8 10 11 10 2 0 4 -4 4
-10z m0 -30 c0 -5 -4 -10 -10 -10 -5 0 -10 5 -10 10 0 6 5 10 10 10 6 0 10 -4
10 -10z"/>
<path d="M1007 103 c-2 -5 -7 -20 -11 -35 -6 -24 -3 -28 16 -27 13 0 17 3 11
6 -19 7 -16 23 5 24 14 0 14 2 -3 9 -19 8 -19 8 5 18 24 10 24 11 3 11 -12 1
-24 -2 -26 -6z"/>
<path d="M1103 93 c-4 -9 -1 -19 5 -21 18 -6 14 -20 -5 -25 -14 -4 -12 -5 5
-6 22 -1 31 22 12 34 -16 10 -11 28 6 21 8 -3 12 -2 9 4 -9 15 -25 12 -32 -7z"/>
<path d="M1199 73 l4 -38 8 29 c5 16 14 33 21 37 9 6 5 9 -12 9 -24 0 -26 -3
-21 -37z"/>
<path d="M1417 103 c-2 -5 -7 -20 -11 -36 -6 -26 -6 -27 12 -10 10 10 14 20
10 21 -14 6 -9 20 10 25 15 4 15 5 0 6 -9 0 -19 -2 -21 -6z"/>
<path d="M1505 90 c-17 -19 -17 -22 -3 -36 24 -25 60 -9 56 24 -4 34 -28 39
-53 12z m42 -6 c7 -20 -11 -38 -32 -30 -13 4 -14 10 -5 26 13 24 28 26 37 4z"/>
<path d="M1620 84 c-13 -32 -13 -54 -1 -35 8 12 12 13 25 1 14 -11 16 -10 11
3 -4 8 -1 18 5 22 8 5 8 11 -1 21 -17 21 -28 17 -39 -12z m30 7 c0 -6 -4 -13
-10 -16 -5 -3 -10 1 -10 9 0 9 5 16 10 16 6 0 10 -4 10 -9z"/>
<path d="M1726 94 c-9 -8 -16 -22 -16 -30 0 -19 29 -30 48 -17 23 14 26 33 5
33 -15 0 -15 -2 -3 -10 12 -8 12 -10 -3 -16 -26 -10 -44 11 -27 31 7 9 19 14
27 11 7 -3 13 -1 13 4 0 15 -27 12 -44 -6z"/>
<path d="M1836 88 c-10 -39 -7 -48 17 -47 16 1 18 2 5 6 -10 2 -18 9 -18 14 0
5 8 9 18 10 10 0 12 3 5 6 -18 7 -16 21 5 26 13 4 13 5 -4 6 -15 1 -24 -7 -28
-21z"/>
<path d="M1939 73 c4 -30 6 -33 9 -13 2 14 11 31 20 38 14 10 13 12 -9 12 -23
0 -25 -3 -20 -37z"/>
<path d="M2099 73 l4 -38 8 29 c5 16 14 33 21 37 9 6 5 9 -12 9 -24 0 -26 -3
-21 -37z"/>
<path d="M2184 85 c-3 -13 -4 -30 -1 -37 4 -8 6 -7 6 5 1 9 8 17 16 17 8 0 15
-8 16 -17 0 -10 5 -3 10 16 6 18 8 36 5 39 -3 3 -6 -2 -6 -11 0 -10 -8 -17
-20 -17 -13 0 -18 5 -14 15 4 8 3 15 0 15 -3 0 -8 -11 -12 -25z"/>
<path d="M2297 103 c-2 -5 -7 -20 -11 -35 -6 -24 -3 -28 16 -27 13 0 17 3 11
6 -19 7 -16 23 5 24 14 0 14 2 -3 9 -19 8 -19 8 5 18 24 10 24 11 3 11 -12 1
-24 -2 -26 -6z"/>
<path d="M2456 98 c-3 -7 -7 -24 -10 -38 -5 -23 -4 -24 9 -7 13 18 14 18 25 0
9 -14 10 -14 7 -2 -3 9 -1 21 5 27 6 6 7 15 4 21 -10 15 -36 14 -40 -1z m28
-19 c-3 -5 -10 -7 -15 -3 -5 3 -7 10 -3 15 3 5 10 7 15 3 5 -3 7 -10 3 -15z"/>
<path d="M2556 94 c-13 -34 -7 -54 17 -53 16 1 18 2 5 6 -10 2 -18 9 -18 14 0
5 8 9 18 10 10 0 12 3 5 6 -18 7 -16 21 5 26 13 4 12 5 -4 6 -12 0 -25 -6 -28
-15z"/>
<path d="M2655 99 c-4 -5 1 -20 12 -31 18 -21 18 -21 -5 -16 -12 4 -20 2 -16
-3 7 -13 31 -11 40 3 4 6 0 16 -9 23 -21 15 -22 29 -2 21 8 -3 15 -1 15 4 0
13 -27 13 -35 -1z"/>
<path d="M2753 73 c-1 -26 1 -33 7 -23 6 8 10 23 10 32 0 9 6 19 13 21 6 3 3
6 -8 6 -16 1 -20 -6 -22 -36z"/>
</g>
</svg>
