<svg xmlns="http://www.w3.org/2000/svg" xmlns:xlink="http://www.w3.org/1999/xlink" version="1.1" width="1000" height="1000" viewBox="0 0 1000 1000" xml:space="preserve">
<desc>Created with Fabric.js 3.5.0</desc>
<defs>
</defs>
<rect x="0" y="0" width="100%" height="100%" fill="rgba(224,56,56,0)"/>
<g transform="matrix(2.5129 1.3645 -1.3645 2.5129 505.6148 421.7046)" id="662671">
<g style="" vector-effect="non-scaling-stroke">
		<g transform="matrix(0.1333 0 0 -0.1333 -111.4464 -10.2086)">
<path style="stroke: none; stroke-width: 1; stroke-dasharray: none; stroke-linecap: butt; stroke-dashoffset: 0; stroke-linejoin: miter; stroke-miterlimit: 4; is-custom-font: none; font-file-url: none; fill: rgb(0,0,0); fill-rule: nonzero; opacity: 1;" transform=" translate(-574.2919, -426.5)" d="M 685 635 c -22 -26 -48 -57 -57 -69 l -17 -21 l -25 24 c -30 28 -35 17 -7 -13 c 20 -21 20 -21 -60 -116 c -128 -152 -119 -148 -119 -58 c 0 67 3 80 25 106 c 21 25 25 40 25 93 c 0 35 -4 70 -9 77 c -6 9 -66 -55 -207 -219 c -109 -128 -205 -241 -212 -251 c -12 -17 -9 -18 61 -18 l 74 0 l 59 70 c 32 39 62 70 66 70 c 4 0 8 -31 8 -70 l 0 -70 l 74 0 l 75 0 l 107 125 c 59 69 108 124 110 123 c 1 -2 -3 -25 -9 -51 c -8 -35 -14 -46 -25 -42 c -12 4 -13 3 -2 -10 c 10 -12 10 -25 1 -59 c -19 -78 -16 -86 29 -86 c 34 0 40 3 46 26 l 7 25 l 26 -25 c 22 -21 37 -26 79 -26 l 52 0 l 0 150 l 0 150 l 63 0 c 61 0 67 2 137 53 l 72 52 l -200 3 l -201 2 l -3 52 l -3 51 l -40 -48 z m 125 -172 c -1 -5 -14 -24 -30 -43 c -28 -32 -30 -39 -30 -123 l 0 -88 l -25 18 c -25 18 -25 19 -19 123 c 4 58 9 108 11 113 c 2 4 24 7 49 7 c 24 0 44 -3 44 -7 z" stroke-linecap="round"/>
</g>
		<g transform="matrix(0.1333 0 0 -0.1333 -40.4042 2.6346)">
<path style="stroke: none; stroke-width: 1; stroke-dasharray: none; stroke-linecap: butt; stroke-dashoffset: 0; stroke-linejoin: miter; stroke-miterlimit: 4; is-custom-font: none; font-file-url: none; fill: rgb(0,0,0); fill-rule: nonzero; opacity: 1;" transform=" translate(-1107, -330.2026)" d="M 1059 451 c -51 -52 -32 -105 56 -157 c 12 -6 16 -16 12 -27 c -8 -21 -60 -23 -77 -2 c -10 12 -16 11 -42 -8 l -29 -22 l 32 -29 c 29 -26 37 -28 92 -24 c 50 4 64 9 84 32 c 39 45 29 92 -27 134 c -25 19 -46 40 -48 47 c -4 19 25 26 54 13 c 21 -10 28 -8 47 11 l 22 22 l -24 20 c -16 13 -39 19 -73 19 c -41 0 -54 -5 -79 -29 z" stroke-linecap="round"/>
</g>
		<g transform="matrix(0.1333 0 0 -0.1333 -3.2986 2.9891)">
<path style="stroke: none; stroke-width: 1; stroke-dasharray: none; stroke-linecap: butt; stroke-dashoffset: 0; stroke-linejoin: miter; stroke-miterlimit: 4; is-custom-font: none; font-file-url: none; fill: rgb(0,0,0); fill-rule: nonzero; opacity: 1;" transform=" translate(-1385.2959, -327.5426)" d="M 1277 468 c -2 -7 -12 -57 -22 -111 c -22 -117 -16 -144 38 -170 c 65 -32 147 -4 181 61 c 8 15 21 65 31 112 c 9 47 19 93 21 103 c 5 14 -1 17 -35 17 c -45 0 -41 7 -67 -115 c -22 -103 -28 -115 -64 -115 c -41 0 -44 22 -20 131 c 11 51 20 94 20 96 c 0 10 -79 1 -83 -9 z" stroke-linecap="round"/>
</g>
		<g transform="matrix(0.1333 0 0 -0.1333 30.6623 2.6767)">
<path style="stroke: none; stroke-width: 1; stroke-dasharray: none; stroke-linecap: butt; stroke-dashoffset: 0; stroke-linejoin: miter; stroke-miterlimit: 4; is-custom-font: none; font-file-url: none; fill: rgb(0,0,0); fill-rule: nonzero; opacity: 1;" transform=" translate(-1640, -329.8866)" d="M 1567 464 c -8 -27 -57 -263 -57 -274 c 0 -6 18 -10 39 -10 c 39 0 40 1 48 42 c 9 42 9 43 61 51 c 73 12 112 50 112 110 c 0 73 -22 91 -118 95 c -71 4 -81 2 -85 -14 z m 117 -60 c 22 -8 20 -41 -3 -54 c -31 -16 -64 -13 -57 6 c 3 9 6 24 6 35 c 0 19 23 25 54 13 z" stroke-linecap="round"/>
</g>
		<g transform="matrix(0.1333 0 0 -0.1333 63.9575 2.6767)">
<path style="stroke: none; stroke-width: 1; stroke-dasharray: none; stroke-linecap: butt; stroke-dashoffset: 0; stroke-linejoin: miter; stroke-miterlimit: 4; is-custom-font: none; font-file-url: none; fill: rgb(0,0,0); fill-rule: nonzero; opacity: 1;" transform=" translate(-1889.7135, -329.8866)" d="M 1816 464 c -9 -29 -56 -258 -56 -271 c 0 -8 14 -13 39 -13 c 37 0 38 1 47 43 c 7 34 13 43 34 45 c 48 5 109 33 124 57 c 22 33 20 97 -3 126 c -17 21 -30 24 -99 27 c -71 4 -81 2 -86 -14 z m 122 -66 c 7 -7 12 -15 12 -19 c 0 -17 -33 -39 -57 -39 c -21 0 -24 3 -19 23 c 3 12 6 28 6 35 c 0 15 42 16 58 0 z" stroke-linecap="round"/>
</g>
		<g transform="matrix(0.1333 0 0 -0.1333 93.4549 2.7639)">
<path style="stroke: none; stroke-width: 1; stroke-dasharray: none; stroke-linecap: butt; stroke-dashoffset: 0; stroke-linejoin: miter; stroke-miterlimit: 4; is-custom-font: none; font-file-url: none; fill: rgb(0,0,0); fill-rule: nonzero; opacity: 1;" transform=" translate(-2110.9375, -329.233)" d="M 2065 468 c -7 -25 -55 -260 -55 -274 c 0 -22 186 -20 194 2 c 17 43 8 54 -42 54 c -27 0 -51 2 -54 5 c -3 4 -1 25 4 48 c 5 23 15 72 23 110 l 13 67 l -39 0 c -23 0 -41 -5 -44 -12 z" stroke-linecap="round"/>
</g>
		<g transform="matrix(0.1333 0 0 -0.1333 117.4786 2.6617)">
<path style="stroke: none; stroke-width: 1; stroke-dasharray: none; stroke-linecap: butt; stroke-dashoffset: 0; stroke-linejoin: miter; stroke-miterlimit: 4; is-custom-font: none; font-file-url: none; fill: rgb(0,0,0); fill-rule: nonzero; opacity: 1;" transform=" translate(-2291.1068, -330)" d="M 2256 343 c -16 -75 -30 -143 -33 -150 c -4 -9 7 -13 39 -13 l 44 0 l 27 138 c 15 76 27 144 27 150 c 0 7 -15 12 -38 12 l -38 0 l -28 -137 z" stroke-linecap="round"/>
</g>
		<g transform="matrix(0.1333 0 0 -0.1333 141.867 2.7639)">
<path style="stroke: none; stroke-width: 1; stroke-dasharray: none; stroke-linecap: butt; stroke-dashoffset: 0; stroke-linejoin: miter; stroke-miterlimit: 4; is-custom-font: none; font-file-url: none; fill: rgb(0,0,0); fill-rule: nonzero; opacity: 1;" transform=" translate(-2474.0332, -329.233)" d="M 2405 468 c -7 -25 -55 -260 -55 -274 c 0 -22 186 -20 194 2 c 17 45 9 54 -50 54 c -47 0 -55 3 -50 16 c 3 9 6 20 6 24 c 0 5 21 10 48 12 c 43 3 47 5 50 31 c 3 26 1 27 -37 27 c -37 0 -41 2 -41 25 c 0 24 3 25 60 25 c 41 0 60 4 60 13 c 0 6 3 22 6 35 c 6 22 5 22 -90 22 c -69 0 -98 -4 -101 -12 z" stroke-linecap="round"/>
</g>
		<g transform="matrix(0.1333 0 0 -0.1333 170.8475 2.62)">
<path style="stroke: none; stroke-width: 1; stroke-dasharray: none; stroke-linecap: butt; stroke-dashoffset: 0; stroke-linejoin: miter; stroke-miterlimit: 4; is-custom-font: none; font-file-url: none; fill: rgb(0,0,0); fill-rule: nonzero; opacity: 1;" transform=" translate(-2691.3879, -330.3128)" d="M 2659 465 c -57 -31 -58 -106 -2 -141 c 47 -30 62 -45 56 -60 c -7 -19 -58 -18 -77 1 c -13 14 -18 12 -43 -9 l -28 -25 l 22 -22 c 29 -29 117 -38 160 -16 c 38 20 60 69 47 105 c -8 24 -26 39 -90 79 c -18 10 -18 12 -2 29 c 15 15 21 16 41 5 c 21 -11 29 -10 51 4 c 31 21 31 19 4 45 c -26 24 -99 27 -139 5 z" stroke-linecap="round"/>
</g>
		<g transform="matrix(0.1333 0 0 -0.1333 -178.2095 36.6331)">
<path style="stroke: none; stroke-width: 1; stroke-dasharray: none; stroke-linecap: butt; stroke-dashoffset: 0; stroke-linejoin: miter; stroke-miterlimit: 4; is-custom-font: none; font-file-url: none; fill: rgb(0,0,0); fill-rule: nonzero; opacity: 1;" transform=" translate(-73.434, -75.2435)" d="M 63 93 c -4 -9 -1 -19 5 -21 c 18 -6 14 -20 -5 -25 c -16 -4 -16 -5 -1 -6 c 22 -1 33 18 19 32 c -16 16 -13 30 5 23 c 8 -3 12 -2 9 4 c -9 15 -25 12 -32 -7 z" stroke-linecap="round"/>
</g>
		<g transform="matrix(0.1333 0 0 -0.1333 -164.7914 36.6488)">
<path style="stroke: none; stroke-width: 1; stroke-dasharray: none; stroke-linecap: butt; stroke-dashoffset: 0; stroke-linejoin: miter; stroke-miterlimit: 4; is-custom-font: none; font-file-url: none; fill: rgb(0,0,0); fill-rule: nonzero; opacity: 1;" transform=" translate(-174.0728, -75.125)" d="M 194 95 c -7 -18 -30 -20 -37 -2 c -4 7 -6 6 -6 -5 c -1 -9 -4 -25 -7 -35 c -5 -17 -5 -17 6 0 c 6 9 18 17 27 17 c 10 0 13 -5 8 -17 c -4 -12 -3 -14 3 -8 c 11 12 25 65 17 65 c -3 0 -8 -7 -11 -15 z" stroke-linecap="round"/>
</g>
		<g transform="matrix(0.1333 0 0 -0.1333 -150.3178 36.7541)">
<path style="stroke: none; stroke-width: 1; stroke-dasharray: none; stroke-linecap: butt; stroke-dashoffset: 0; stroke-linejoin: miter; stroke-miterlimit: 4; is-custom-font: none; font-file-url: none; fill: rgb(0,0,0); fill-rule: nonzero; opacity: 1;" transform=" translate(-282.625, -74.3362)" d="M 266 95 c -21 -21 -21 -44 0 -52 c 24 -9 49 10 49 38 c 0 29 -26 36 -49 14 z m 42 -18 c 4 -21 -25 -34 -40 -19 c -8 8 -8 16 2 27 c 16 19 34 15 38 -8 z" stroke-linecap="round"/>
</g>
		<g transform="matrix(0.1333 0 0 -0.1333 -135.5091 36.4326)">
<path style="stroke: none; stroke-width: 1; stroke-dasharray: none; stroke-linecap: butt; stroke-dashoffset: 0; stroke-linejoin: miter; stroke-miterlimit: 4; is-custom-font: none; font-file-url: none; fill: rgb(0,0,0); fill-rule: nonzero; opacity: 1;" transform=" translate(-393.688, -76.748)" d="M 376 88 c -10 -40 -8 -51 7 -36 c 8 7 12 20 9 30 c -6 23 15 24 22 1 c 4 -14 4 -14 3 2 c -3 29 -33 31 -41 3 z" stroke-linecap="round"/>
</g>
		<g transform="matrix(0.1333 0 0 -0.1333 -112.4374 36.9987)">
<path style="stroke: none; stroke-width: 1; stroke-dasharray: none; stroke-linecap: butt; stroke-dashoffset: 0; stroke-linejoin: miter; stroke-miterlimit: 4; is-custom-font: none; font-file-url: none; fill: rgb(0,0,0); fill-rule: nonzero; opacity: 1;" transform=" translate(-566.7241, -72.5)" d="M 549 73 l 4 -38 l 8 29 c 5 16 14 33 21 37 c 9 6 5 9 -12 9 c -24 0 -26 -3 -21 -37 z" stroke-linecap="round"/>
</g>
		<g transform="matrix(0.1333 0 0 -0.1333 -100.0965 36.4768)">
<path style="stroke: none; stroke-width: 1; stroke-dasharray: none; stroke-linecap: butt; stroke-dashoffset: 0; stroke-linejoin: miter; stroke-miterlimit: 4; is-custom-font: none; font-file-url: none; fill: rgb(0,0,0); fill-rule: nonzero; opacity: 1;" transform=" translate(-659.2835, -76.4152)" d="M 634 85 c -3 -13 -4 -30 -1 -37 c 4 -8 6 -7 6 5 c 1 9 8 17 16 17 c 8 0 15 -8 16 -17 c 0 -10 5 -3 10 16 c 6 18 8 36 5 39 c -3 3 -6 -2 -6 -11 c 0 -10 -8 -17 -20 -17 c -13 0 -18 5 -14 15 c 4 8 3 15 0 15 c -3 0 -8 -11 -12 -25 z" stroke-linecap="round"/>
</g>
		<g transform="matrix(0.1333 0 0 -0.1333 -86.56 36.6617)">
<path style="stroke: none; stroke-width: 1; stroke-dasharray: none; stroke-linecap: butt; stroke-dashoffset: 0; stroke-linejoin: miter; stroke-miterlimit: 4; is-custom-font: none; font-file-url: none; fill: rgb(0,0,0); fill-rule: nonzero; opacity: 1;" transform=" translate(-760.8064, -75.0281)" d="M 747 103 c -2 -5 -7 -20 -11 -35 c -6 -24 -3 -28 16 -27 c 13 0 17 3 11 6 c -19 7 -16 23 5 24 c 14 0 14 2 -3 9 c -19 8 -19 8 5 18 c 24 10 24 11 3 11 c -12 1 -24 -2 -26 -6 z" stroke-linecap="round"/>
</g>
		<g transform="matrix(0.1333 0 0 -0.1333 -65.4458 36.6913)">
<path style="stroke: none; stroke-width: 1; stroke-dasharray: none; stroke-linecap: butt; stroke-dashoffset: 0; stroke-linejoin: miter; stroke-miterlimit: 4; is-custom-font: none; font-file-url: none; fill: rgb(0,0,0); fill-rule: nonzero; opacity: 1;" transform=" translate(-919.1623, -74.8061)" d="M 906 98 c -14 -46 -14 -58 4 -58 c 26 0 39 21 29 48 c -9 24 -27 29 -33 10 z m 24 -8 c 0 -5 -5 -10 -11 -10 c -5 0 -7 5 -4 10 c 3 6 8 10 11 10 c 2 0 4 -4 4 -10 z m 0 -30 c 0 -5 -4 -10 -10 -10 c -5 0 -10 5 -10 10 c 0 6 5 10 10 10 c 6 0 10 -4 10 -10 z" stroke-linecap="round"/>
</g>
		<g transform="matrix(0.1333 0 0 -0.1333 -51.8934 36.6617)">
<path style="stroke: none; stroke-width: 1; stroke-dasharray: none; stroke-linecap: butt; stroke-dashoffset: 0; stroke-linejoin: miter; stroke-miterlimit: 4; is-custom-font: none; font-file-url: none; fill: rgb(0,0,0); fill-rule: nonzero; opacity: 1;" transform=" translate(-1020.8064, -75.0281)" d="M 1007 103 c -2 -5 -7 -20 -11 -35 c -6 -24 -3 -28 16 -27 c 13 0 17 3 11 6 c -19 7 -16 23 5 24 c 14 0 14 2 -3 9 c -19 8 -19 8 5 18 c 24 10 24 11 3 11 c -12 1 -24 -2 -26 -6 z" stroke-linecap="round"/>
</g>
		<g transform="matrix(0.1333 0 0 -0.1333 -39.3525 36.6326)">
<path style="stroke: none; stroke-width: 1; stroke-dasharray: none; stroke-linecap: butt; stroke-dashoffset: 0; stroke-linejoin: miter; stroke-miterlimit: 4; is-custom-font: none; font-file-url: none; fill: rgb(0,0,0); fill-rule: nonzero; opacity: 1;" transform=" translate(-1114.8615, -75.2467)" d="M 1103 93 c -4 -9 -1 -19 5 -21 c 18 -6 14 -20 -5 -25 c -14 -4 -12 -5 5 -6 c 22 -1 31 22 12 34 c -16 10 -11 28 6 21 c 8 -3 12 -2 9 4 c -9 15 -25 12 -32 -7 z" stroke-linecap="round"/>
</g>
		<g transform="matrix(0.1333 0 0 -0.1333 -25.7708 36.9987)">
<path style="stroke: none; stroke-width: 1; stroke-dasharray: none; stroke-linecap: butt; stroke-dashoffset: 0; stroke-linejoin: miter; stroke-miterlimit: 4; is-custom-font: none; font-file-url: none; fill: rgb(0,0,0); fill-rule: nonzero; opacity: 1;" transform=" translate(-1216.7241, -72.5)" d="M 1199 73 l 4 -38 l 8 29 c 5 16 14 33 21 37 c 9 6 5 9 -12 9 c -24 0 -26 -3 -21 -37 z" stroke-linecap="round"/>
</g>
		<g transform="matrix(0.1333 0 0 -0.1333 2.1099 36.3583)">
<path style="stroke: none; stroke-width: 1; stroke-dasharray: none; stroke-linecap: butt; stroke-dashoffset: 0; stroke-linejoin: miter; stroke-miterlimit: 4; is-custom-font: none; font-file-url: none; fill: rgb(0,0,0); fill-rule: nonzero; opacity: 1;" transform=" translate(-1425.8308, -77.3047)" d="M 1417 103 c -2 -5 -7 -20 -11 -36 c -6 -26 -6 -27 12 -10 c 10 10 14 20 10 21 c -14 6 -9 20 10 25 c 15 4 15 5 0 6 c -9 0 -19 -2 -21 -6 z" stroke-linecap="round"/>
</g>
		<g transform="matrix(0.1333 0 0 -0.1333 15.3425 36.726)">
<path style="stroke: none; stroke-width: 1; stroke-dasharray: none; stroke-linecap: butt; stroke-dashoffset: 0; stroke-linejoin: miter; stroke-miterlimit: 4; is-custom-font: none; font-file-url: none; fill: rgb(0,0,0); fill-rule: nonzero; opacity: 1;" transform=" translate(-1525.0773, -74.5467)" d="M 1505 90 c -17 -19 -17 -22 -3 -36 c 24 -25 60 -9 56 24 c -4 34 -28 39 -53 12 z m 42 -6 c 7 -20 -11 -38 -32 -30 c -13 4 -14 10 -5 26 c 13 24 28 26 37 4 z" stroke-linecap="round"/>
</g>
		<g transform="matrix(0.1333 0 0 -0.1333 30.3992 36.5869)">
<path style="stroke: none; stroke-width: 1; stroke-dasharray: none; stroke-linecap: butt; stroke-dashoffset: 0; stroke-linejoin: miter; stroke-miterlimit: 4; is-custom-font: none; font-file-url: none; fill: rgb(0,0,0); fill-rule: nonzero; opacity: 1;" transform=" translate(-1638.0009, -75.5894)" d="M 1620 84 c -13 -32 -13 -54 -1 -35 c 8 12 12 13 25 1 c 14 -11 16 -10 11 3 c -4 8 -1 18 5 22 c 8 5 8 11 -1 21 c -17 21 -28 17 -39 -12 z m 30 7 c 0 -6 -4 -13 -10 -16 c -5 -3 -10 1 -10 9 c 0 9 5 16 10 16 c 6 0 10 -4 10 -9 z" stroke-linecap="round"/>
</g>
		<g transform="matrix(0.1333 0 0 -0.1333 44.4746 36.602)">
<path style="stroke: none; stroke-width: 1; stroke-dasharray: none; stroke-linecap: butt; stroke-dashoffset: 0; stroke-linejoin: miter; stroke-miterlimit: 4; is-custom-font: none; font-file-url: none; fill: rgb(0,0,0); fill-rule: nonzero; opacity: 1;" transform=" translate(-1743.568, -75.4761)" d="M 1726 94 c -9 -8 -16 -22 -16 -30 c 0 -19 29 -30 48 -17 c 23 14 26 33 5 33 c -15 0 -15 -2 -3 -10 c 12 -8 12 -10 -3 -16 c -26 -10 -44 11 -27 31 c 7 9 19 14 27 11 c 7 -3 13 -1 13 4 c 0 15 -27 12 -44 -6 z" stroke-linecap="round"/>
</g>
		<g transform="matrix(0.1333 0 0 -0.1333 59.1939 36.6648)">
<path style="stroke: none; stroke-width: 1; stroke-dasharray: none; stroke-linecap: butt; stroke-dashoffset: 0; stroke-linejoin: miter; stroke-miterlimit: 4; is-custom-font: none; font-file-url: none; fill: rgb(0,0,0); fill-rule: nonzero; opacity: 1;" transform=" translate(-1853.9602, -75.0056)" d="M 1836 88 c -10 -39 -7 -48 17 -47 c 16 1 18 2 5 6 c -10 2 -18 9 -18 14 c 0 5 8 9 18 10 c 10 0 12 3 5 6 c -18 7 -16 21 5 26 c 13 4 13 5 -4 6 c -15 1 -24 -7 -28 -21 z" stroke-linecap="round"/>
</g>
		<g transform="matrix(0.1333 0 0 -0.1333 72.9338 36.181)">
<path style="stroke: none; stroke-width: 1; stroke-dasharray: none; stroke-linecap: butt; stroke-dashoffset: 0; stroke-linejoin: miter; stroke-miterlimit: 4; is-custom-font: none; font-file-url: none; fill: rgb(0,0,0); fill-rule: nonzero; opacity: 1;" transform=" translate(-1957.0081, -78.634)" d="M 1939 73 c 4 -30 6 -33 9 -13 c 2 14 11 31 20 38 c 14 10 13 12 -9 12 c -23 0 -25 -3 -20 -37 z" stroke-linecap="round"/>
</g>
		<g transform="matrix(0.1333 0 0 -0.1333 94.2292 36.9987)">
<path style="stroke: none; stroke-width: 1; stroke-dasharray: none; stroke-linecap: butt; stroke-dashoffset: 0; stroke-linejoin: miter; stroke-miterlimit: 4; is-custom-font: none; font-file-url: none; fill: rgb(0,0,0); fill-rule: nonzero; opacity: 1;" transform=" translate(-2116.7241, -72.5)" d="M 2099 73 l 4 -38 l 8 29 c 5 16 14 33 21 37 c 9 6 5 9 -12 9 c -24 0 -26 -3 -21 -37 z" stroke-linecap="round"/>
</g>
		<g transform="matrix(0.1333 0 0 -0.1333 106.5702 36.4768)">
<path style="stroke: none; stroke-width: 1; stroke-dasharray: none; stroke-linecap: butt; stroke-dashoffset: 0; stroke-linejoin: miter; stroke-miterlimit: 4; is-custom-font: none; font-file-url: none; fill: rgb(0,0,0); fill-rule: nonzero; opacity: 1;" transform=" translate(-2209.2835, -76.4152)" d="M 2184 85 c -3 -13 -4 -30 -1 -37 c 4 -8 6 -7 6 5 c 1 9 8 17 16 17 c 8 0 15 -8 16 -17 c 0 -10 5 -3 10 16 c 6 18 8 36 5 39 c -3 3 -6 -2 -6 -11 c 0 -10 -8 -17 -20 -17 c -13 0 -18 5 -14 15 c 4 8 3 15 0 15 c -3 0 -8 -11 -12 -25 z" stroke-linecap="round"/>
</g>
		<g transform="matrix(0.1333 0 0 -0.1333 120.1066 36.6617)">
<path style="stroke: none; stroke-width: 1; stroke-dasharray: none; stroke-linecap: butt; stroke-dashoffset: 0; stroke-linejoin: miter; stroke-miterlimit: 4; is-custom-font: none; font-file-url: none; fill: rgb(0,0,0); fill-rule: nonzero; opacity: 1;" transform=" translate(-2310.8064, -75.0281)" d="M 2297 103 c -2 -5 -7 -20 -11 -35 c -6 -24 -3 -28 16 -27 c 13 0 17 3 11 6 c -19 7 -16 23 5 24 c 14 0 14 2 -3 9 c -19 8 -19 8 5 18 c 24 10 24 11 3 11 c -12 1 -24 -2 -26 -6 z" stroke-linecap="round"/>
</g>
		<g transform="matrix(0.1333 0 0 -0.1333 141.3891 36.5914)">
<path style="stroke: none; stroke-width: 1; stroke-dasharray: none; stroke-linecap: butt; stroke-dashoffset: 0; stroke-linejoin: miter; stroke-miterlimit: 4; is-custom-font: none; font-file-url: none; fill: rgb(0,0,0); fill-rule: nonzero; opacity: 1;" transform=" translate(-2470.425, -75.556)" d="M 2456 98 c -3 -7 -7 -24 -10 -38 c -5 -23 -4 -24 9 -7 c 13 18 14 18 25 0 c 9 -14 10 -14 7 -2 c -3 9 -1 21 5 27 c 6 6 7 15 4 21 c -10 15 -36 14 -40 -1 z m 28 -19 c -3 -5 -10 -7 -15 -3 c -5 3 -7 10 -3 15 c 3 5 10 7 15 3 c 5 -3 7 -10 3 -15 z" stroke-linecap="round"/>
</g>
		<g transform="matrix(0.1333 0 0 -0.1333 155.0821 36.6679)">
<path style="stroke: none; stroke-width: 1; stroke-dasharray: none; stroke-linecap: butt; stroke-dashoffset: 0; stroke-linejoin: miter; stroke-miterlimit: 4; is-custom-font: none; font-file-url: none; fill: rgb(0,0,0); fill-rule: nonzero; opacity: 1;" transform=" translate(-2573.1221, -74.9821)" d="M 2556 94 c -13 -34 -7 -54 17 -53 c 16 1 18 2 5 6 c -10 2 -18 9 -18 14 c 0 5 8 9 18 10 c 10 0 12 3 5 6 c -18 7 -16 21 5 26 c 13 4 12 5 -4 6 c -12 0 -25 -6 -28 -15 z" stroke-linecap="round"/>
</g>
		<g transform="matrix(0.1333 0 0 -0.1333 167.6632 36.6711)">
<path style="stroke: none; stroke-width: 1; stroke-dasharray: none; stroke-linecap: butt; stroke-dashoffset: 0; stroke-linejoin: miter; stroke-miterlimit: 4; is-custom-font: none; font-file-url: none; fill: rgb(0,0,0); fill-rule: nonzero; opacity: 1;" transform=" translate(-2667.4797, -74.9585)" d="M 2655 99 c -4 -5 1 -20 12 -31 c 18 -21 18 -21 -5 -16 c -12 4 -20 2 -16 -3 c 7 -13 31 -11 40 3 c 4 6 0 16 -9 23 c -21 15 -22 29 -2 21 c 8 -3 15 -1 15 4 c 0 13 -27 13 -35 -1 z" stroke-linecap="round"/>
</g>
		<g transform="matrix(0.1333 0 0 -0.1333 181.2523 36.3504)">
<path style="stroke: none; stroke-width: 1; stroke-dasharray: none; stroke-linecap: butt; stroke-dashoffset: 0; stroke-linejoin: miter; stroke-miterlimit: 4; is-custom-font: none; font-file-url: none; fill: rgb(0,0,0); fill-rule: nonzero; opacity: 1;" transform=" translate(-2769.3963, -77.3641)" d="M 2753 73 c -1 -26 1 -33 7 -23 c 6 8 10 23 10 32 c 0 9 6 19 13 21 c 6 3 3 6 -8 6 c -16 1 -20 -6 -22 -36 z" stroke-linecap="round"/>
</g>
</g>
</g>
</svg>